<?xml version="1.0" encoding="utf-8"?>
<!-- Generator: Adobe Illustrator 19.0.0, SVG Export Plug-In . SVG Version: 6.00 Build 0)  -->
<svg version="1.1" id="Layer_1" xmlns="http://www.w3.org/2000/svg" xmlns:xlink="http://www.w3.org/1999/xlink" x="0px" y="0px"
	 viewBox="204.4 311.6 189 218.2" fill="#fafafa" style="enable-background:new 204.4 311.6 189 218.2;" xml:space="preserve">
<g id="XMLID_1_">
	<path d="M298.9,478.3L249,449.5v-57.6l49.9-28.9l49.9,28.9v57.6L298.9,478.3z M261,442.5l37.9,21.9l37.9-21.9v-43.8l-37.9-21.9
		L261,398.8V442.5z"/>
	<path d="M298.9,478.3L249,449.5v-57.6l49.9-28.9l49.9,28.9v57.6L298.9,478.3z M261,442.5l37.9,21.9l37.9-21.9v-43.8l-37.9-21.9
		L261,398.8V442.5z"/>
	<polygon points="304.9,471.4 292.9,471.4 292.9,424.1 252,400.5 258,390.1 304.9,417.1 	"/>
	<path d="M298.9,529.7l-94.5-54.6v-109l94.5-54.6l94.5,54.6v109L298.9,529.7z M216.4,468.2l82.5,47.6l82.5-47.6v-95.2l-82.5-47.6
		l-82.5,47.6V468.2z"/>
	<path d="M393.4,380l-61.5-36l38.6-22.3l22.9,13.1V380z M355.7,344.1l25.7,15v-17.3l-10.9-6.3L355.7,344.1z"/>
	<path d="M204.4,380v-45.8l23.2-13.4l39.4,22.7L204.4,380z M216.4,341.2v18l26.6-15.5l-15.4-8.9L216.4,341.2z"/>
</g>
</svg>
